<svg width="616" height="214" viewBox="0 0 616 214" fill="none" xmlns="http://www.w3.org/2000/svg">
<path d="M110.153 31.2542L57.4296 76.0616L117.744 102.517L47.2734 157.947" stroke="#016BB7" stroke-width="20.5049"/>
<path d="M408.998 103.611L385.21 45.7816L361.422 103.611H408.998ZM464.326 146.654V157.825H412.205V146.654H426.639L413.275 113.96H357.145L343.78 146.654H358.481V157.825H306.36V146.654H323.199L369.707 34.6102H401.247L446.953 146.654H464.326Z" fill="black"/>
<path d="M307.964 146.654V157.825H255.041V146.654H269.475L223.769 101.475L195.436 112.153V146.654H212.81V157.825H156.68V146.654H173.518V45.7816H156.68V34.6102H252.101C263.862 34.6102 271.791 36.034 275.89 38.8816C279.989 41.6197 282.037 47.0411 282.037 55.146V65.3317C282.037 69.4938 281.414 72.7794 280.166 75.1889C278.919 77.5984 276.692 79.7892 273.484 81.7607C270.277 83.6225 266 85.5391 260.654 87.5106C255.309 89.4821 248.537 92.0006 240.341 95.0675L292.996 146.654H307.964ZM195.436 99.0104L262.526 73.5458V45.7816H195.436V99.0104Z" fill="#5C2AC5"/>
<path d="M614.805 146.654V157.825H561.882V146.654H576.316L530.61 101.475L502.277 112.153V146.654H519.65V157.825H463.52V146.654H480.359V45.7816H463.52V34.6102H558.942C570.703 34.6102 578.632 36.034 582.731 38.8816C586.828 41.6197 588.878 47.0411 588.878 55.146V65.3317C588.878 69.4938 588.255 72.7794 587.007 75.1889C585.76 77.5984 583.533 79.7892 580.325 81.7607C577.118 83.6225 572.841 85.5391 567.495 87.5106C562.15 89.4821 555.378 92.0006 547.182 95.0675L599.837 146.654H614.805ZM502.277 99.0104L569.367 73.5458V45.7816H502.277V99.0104Z" fill="black"/>
</svg>
